<svg height="463pt" viewBox="-31 0 463 463.38284" width="463pt" xmlns="http://www.w3.org/2000/svg"><path d="m129.441406 290.941406c1.097656 62.957032-45.390625 116.640625-107.855468 124.554688-9.503907 1.035156-17.488282 7.617187-20.316407 16.75-2.832031 9.128906.027344 19.070312 7.273438 25.304687 5.019531 4.417969 11.6875 6.476563 18.320312 5.65625 81.628907-9.886719 144.675781-76.445312 150.128907-158.488281 72.183593 2.390625 139.203124 38.035156 181.535156 96.550781 7.171875 9.988281 20.746094 12.90625 31.386718 6.746094 5.878907-3.398437 10.050782-9.125 11.484376-15.761719 1.429687-6.640625-.007813-13.574218-3.964844-19.09375-41.230469-56.964844-102.269532-96.449218-171.128906-110.707031l14.253906-64.132813 19.90625 43.125c4.328125 9.386719 14.179687 14.945313 24.449218 13.800782 10.269532-1.144532 18.65625-8.734375 20.8125-18.839844l18.691407-87.199219 15.832031 15.832031 11.308594-11.3125-14.007813-14.007812 18.289063-4.574219-3.871094-15.523437-26.792969 6.699218c-3.109375-8.402343-10.746093-14.285156-19.664062-15.152343-1.570313-.164063-3.15625-.164063-4.726563 0-16.25-15.308594-36.457031-25.761719-58.335937-30.183594l2.941406-36.472656c.902344-3.023438 1.367187-6.160157 1.394531-9.3125.1875-12.511719-6.375-24.15625-17.179687-30.464844-10.804688-6.3125-24.171875-6.3125-34.976563 0-10.804687 6.308594-17.371094 17.953125-17.179687 30.464844v45.785156c-30.167969 6.363281-57.832031 21.375-79.609375 43.199219l-5.597656 5.597656.460937.472656c-43.976563 22.234375-76.34375 62.214844-88.941406 109.855469-1.835938 6.984375-.675781 14.414063 3.199219 20.503906 3.480468 5.507813 9.125 9.285157 15.542968 10.402344 1.414063.246094 2.847656.367187 4.28125.367187 11.035156.007813 20.632813-7.5625 23.199219-18.296874 3.308594-13.199219 8.792969-25.753907 16.222656-37.152344 3.203125 31.460937 29.675781 55.40625 61.296875 55.449218h1.9375zm-104.511718 156.386719c-2.128907.253906-4.265626-.421875-5.867188-1.847656-1.75-1.523438-2.773438-3.714844-2.8125-6.035157-.003906-4.183593 3.1875-7.683593 7.359375-8.0625 67.082031-8.492187 118.367187-63.949218 121.597656-131.488281 4.785157 2.894531 10.25 4.472657 15.839844 4.566407-5.332031 74.0625-62.402344 133.960937-136.117187 142.867187zm359.519531-64.800781c1.324219 1.824218 1.804687 4.125 1.320312 6.328125-.46875 2.238281-1.871093 4.167969-3.855469 5.304687-3.523437 2.046875-8.027343 1.082032-10.402343-2.234375-46.882813-64.871093-122.023438-103.335937-202.0625-103.4375h-8c-8.835938 0-16-7.164062-16-16h24c85.15625.105469 165.101562 41.019531 215 110.03125zm-191-347.367188c-.140625-6.761718 3.386719-13.070312 9.21875-16.492187 5.835937-3.421875 13.0625-3.421875 18.894531 0 5.835938 3.421875 9.363281 9.730469 9.222656 16.492187-.035156 1.429688-.25 2.847656-.640625 4.222656h-20.238281v16h18.550781l-1.953125 24.167969-33.054687.75zm-10.113281 60.910156c.679687.238282 1.390624.378907 2.113281.417969h.183593l47.566407-1.105469 5.855469 1.167969c17.097656 3.425781 33.054687 11.101563 46.402343 22.320313-2.257812 2.472656-4.007812 5.363281-5.152343 8.511718h-18.242188l-.679688-1.550781c-3.800781-8.761719-12.433593-14.4375-21.984374-14.449219h-77.492188c-.890625 0-1.773438.164063-2.601562.480469-8.398438.539063-16.742188 1.710938-24.960938 3.511719 14.992188-9.414062 31.605469-15.960938 48.992188-19.304688zm93.230468 47.3125-2.492187 11.632813-5.042969-11.632813zm-242.109375 105.839844c-.980469 4.125-5.003906 6.769532-9.175781 6.03125-2.015625-.359375-3.78125-1.5625-4.855469-3.304687-1.445312-2.34375-1.867187-5.179688-1.167969-7.847657 17.390626-65.6875 75.128907-112.6875 142.984376-116.382812.628906-.027344 1.253906-.140625 1.855468-.335938h75.300782c3.1875-.003906 6.070312 1.878907 7.347656 4.800782l22.589844 52.078125c1.335937 3.230469 4.644531 5.191406 8.121093 4.800781 3.457031-.34375 6.300781-2.882812 7.03125-6.28125l10.398438-48.535156c.691406-4.300782 4.5-7.398438 8.847656-7.199219 2.265625.234375 4.320313 1.417969 5.65625 3.257813 1.335937 1.84375 1.828125 4.167968 1.34375 6.390624l-20.652344 96.359376c-.722656 3.367187-3.515625 5.898437-6.941406 6.28125-3.421875.378906-6.707031-1.472657-8.148437-4.601563l-29.839844-64.640625c-1.433594-3.121094-4.699219-4.980469-8.113282-4.617188-3.417968.363282-6.222656 2.863282-6.964843 6.21875l-18.570313 83.6875h-64.152344l16.953126-101.929687c.40625-2.453125-.351563-4.957031-2.050782-6.773437-1.699218-1.816407-4.144531-2.738282-6.621094-2.496094-58.449218 6.078125-106.863281 48.046875-121.175781 105.039062zm47.449219-39.441406c-.007812-5.335938.933594-10.636719 2.773438-15.648438l-.375-.132812c17.242187-16.601562 38.933593-27.84375 62.441406-32.363281l-15.617188 93.746093h-3.625c-25.167968-.035156-45.5625-20.429687-45.597656-45.601562zm0 0"/><path d="m156.464844 152.101562-18.558594 111.28125h-10.402344c-17.507812.019532-33.917968-8.523437-43.945312-22.871093-10.027344-14.351563-12.410156-32.695313-6.375-49.128907l-.800782-.878906c21.425782-21.710937 49.738282-35.289062 80.082032-38.402344zm0 0" fill="#4e4e4e"/><path d="m286.464844 135.382812-9.761719 45.679688-22.640625-52.078125c-2.523438-5.835937-8.28125-9.609375-14.636719-9.601563h-77.519531l-.082031.320313c-22.085938 1.074219-43.722657 6.625-63.601563 16.320313l-.316406-.640626 5.597656-5.601562c22.253906-22.265625 50.882813-37.058594 81.921875-42.320312v1.042968l48.480469-1.121094 6.71875 1.359376c21.703125 4.324218 41.636719 14.988281 57.28125 30.640624l.15625.558594c-5.601562 2.023438-9.75 6.808594-10.957031 12.640625zm0 0" fill="#4e4e4e"/><path d="m237.503906 42.984375-3.597656 44.398437-48.480469 1.121094v-53.359375c0-14.738281 11.945313-26.683593 26.679688-26.683593s26.679687 11.945312 26.679687 26.683593c-.054687 2.660157-.488281 5.296875-1.28125 7.839844zm0 0" fill="#adabac"/><path d="m137.425781 272.503906c.039063 13.238282 10.761719 23.960938 24 24h7.917969c-1.859375 81.160156-62.882812 148.71875-143.4375 158.796875-4.488281.476563-8.964844-.964843-12.328125-3.964843-3.367187-3-5.3125-7.285157-5.355469-11.792969v-.160157c.097656-8.179687 6.273438-15.003906 14.402344-15.921874 66.40625-8.625 115.789062-65.679688 114.800781-132.636719zm0 0" fill="#4e4e4e"/><path d="m169.34375 296.503906h-7.917969c-13.238281-.039062-23.960937-10.761718-24-24v-8h32c87.765625-.007812 170.1875 42.167969 221.519531 113.359375 4.734376 7.15625 2.980469 16.773438-3.976562 21.800781-6.957031 5.023438-16.640625 3.664063-21.945312-3.082031-45.320313-62.863281-118.101563-100.101562-195.597657-100.078125zm0 0" fill="#4e4e4e"/><path d="m304.625 119.144531c4.515625.472657 8.613281 2.84375 11.269531 6.527344 2.65625 3.679687 3.621094 8.316406 2.648438 12.75l-20.636719 96.320313c-1.46875 6.738281-7.070312 11.792968-13.921875 12.558593-.585937.070313-1.171875.097657-1.761719.082031-6.21875-.015624-11.867187-3.636718-14.476562-9.28125l-29.839844-64.640624-20 89.921874h-80l18.558594-111.28125c-55.109375 5.730469-100.753906 45.304688-114.242188 99.042969-1.949218 8.226563-9.996094 13.496094-18.316406 12-4.523438-1-8.429688-3.835937-10.78125-7.824219-2.351562-3.988281-2.9375-8.777343-1.621094-13.21875 17.925782-69.296874 78.828125-118.886718 150.320313-122.398437l.082031-.320313h77.519531c6.355469-.007812 12.113281 3.765626 14.636719 9.601563l22.640625 52.078125 9.761719-45.679688.640625-2.800781c1.207031-5.832031 5.355469-10.617187 10.957031-12.640625 2.09375-.785156 4.34375-1.058594 6.5625-.796875zm0 0" fill="#adabac"/><path d="m209.90625 39.382812h24v16h-24zm0 0" fill="#4e4e4e"/><path d="m340.25 165.039062-24-24c-2.039062-2.039062-2.820312-5.015624-2.050781-7.792968s2.972656-4.925782 5.769531-5.625l32-8 3.871094 15.523437-18.289063 4.574219 14.007813 14.007812zm0 0" fill="#4e4e4e"/><path d="m129.441406 290.941406c1.097656 62.957032-45.390625 116.640625-107.855468 124.554688-9.503907 1.035156-17.488282 7.617187-20.316407 16.75-2.832031 9.128906.027344 19.070312 7.273438 25.304687 5.019531 4.417969 11.6875 6.476563 18.320312 5.65625 81.628907-9.886719 144.675781-76.445312 150.128907-158.488281 72.183593 2.390625 139.203124 38.035156 181.535156 96.550781 7.171875 9.988281 20.746094 12.90625 31.386718 6.746094 5.878907-3.398437 10.050782-9.125 11.484376-15.761719 1.429687-6.640625-.007813-13.574218-3.964844-19.09375-41.230469-56.964844-102.269532-96.449218-171.128906-110.707031l14.253906-64.132813 19.90625 43.125c4.328125 9.386719 14.179687 14.945313 24.449218 13.800782 10.269532-1.144532 18.65625-8.734375 20.8125-18.839844l18.691407-87.199219 15.832031 15.832031 11.308594-11.3125-14.007813-14.007812 18.289063-4.574219-3.871094-15.523437-26.792969 6.699218c-3.109375-8.402343-10.746093-14.285156-19.664062-15.152343-1.570313-.164063-3.15625-.164063-4.726563 0-16.25-15.308594-36.457031-25.761719-58.335937-30.183594l2.941406-36.472656c.902344-3.023438 1.367187-6.160157 1.394531-9.3125.1875-12.511719-6.375-24.15625-17.179687-30.464844-10.804688-6.3125-24.171875-6.3125-34.976563 0-10.804687 6.308594-17.371094 17.953125-17.179687 30.464844v45.785156c-30.167969 6.363281-57.832031 21.375-79.609375 43.199219l-5.597656 5.597656.460937.472656c-43.976563 22.234375-76.34375 62.214844-88.941406 109.855469-1.835938 6.984375-.675781 14.414063 3.199219 20.503906 3.480468 5.507813 9.125 9.285157 15.542968 10.402344 1.414063.246094 2.847656.367187 4.28125.367187 11.035156.007813 20.632813-7.5625 23.199219-18.296874 3.308594-13.199219 8.792969-25.753907 16.222656-37.152344 3.203125 31.460937 29.675781 55.40625 61.296875 55.449218h1.9375zm-104.511718 156.386719c-2.128907.253906-4.265626-.421875-5.867188-1.847656-1.75-1.523438-2.773438-3.714844-2.8125-6.035157-.003906-4.183593 3.1875-7.683593 7.359375-8.0625 67.082031-8.492187 118.367187-63.949218 121.597656-131.488281 4.785157 2.894531 10.25 4.472657 15.839844 4.566407-5.332031 74.0625-62.402344 133.960937-136.117187 142.867187zm359.519531-64.800781c1.324219 1.824218 1.804687 4.125 1.320312 6.328125-.46875 2.238281-1.871093 4.167969-3.855469 5.304687-3.523437 2.046875-8.027343 1.082032-10.402343-2.234375-46.882813-64.871093-122.023438-103.335937-202.0625-103.4375h-8c-8.835938 0-16-7.164062-16-16h24c85.15625.105469 165.101562 41.019531 215 110.03125zm-191-347.367188c-.140625-6.761718 3.386719-13.070312 9.21875-16.492187 5.835937-3.421875 13.0625-3.421875 18.894531 0 5.835938 3.421875 9.363281 9.730469 9.222656 16.492187-.035156 1.429688-.25 2.847656-.640625 4.222656h-20.238281v16h18.550781l-1.953125 24.167969-33.054687.75zm-10.113281 60.910156c.679687.238282 1.390624.378907 2.113281.417969h.183593l47.566407-1.105469 5.855469 1.167969c17.097656 3.425781 33.054687 11.101563 46.402343 22.320313-2.257812 2.472656-4.007812 5.363281-5.152343 8.511718h-18.242188l-.679688-1.550781c-3.800781-8.761719-12.433593-14.4375-21.984374-14.449219h-77.492188c-.890625 0-1.773438.164063-2.601562.480469-8.398438.539063-16.742188 1.710938-24.960938 3.511719 14.992188-9.414062 31.605469-15.960938 48.992188-19.304688zm93.230468 47.3125-2.492187 11.632813-5.042969-11.632813zm-242.109375 105.839844c-.980469 4.125-5.003906 6.769532-9.175781 6.03125-2.015625-.359375-3.78125-1.5625-4.855469-3.304687-1.445312-2.34375-1.867187-5.179688-1.167969-7.847657 17.390626-65.6875 75.128907-112.6875 142.984376-116.382812.628906-.027344 1.253906-.140625 1.855468-.335938h75.300782c3.1875-.003906 6.070312 1.878907 7.347656 4.800782l22.589844 52.078125c1.335937 3.230469 4.644531 5.191406 8.121093 4.800781 3.457031-.34375 6.300781-2.882812 7.03125-6.28125l10.398438-48.535156c.691406-4.300782 4.5-7.398438 8.847656-7.199219 2.265625.234375 4.320313 1.417969 5.65625 3.257813 1.335937 1.84375 1.828125 4.167968 1.34375 6.390624l-20.652344 96.359376c-.722656 3.367187-3.515625 5.898437-6.941406 6.28125-3.421875.378906-6.707031-1.472657-8.148437-4.601563l-29.839844-64.640625c-1.433594-3.121094-4.699219-4.980469-8.113282-4.617188-3.417968.363282-6.222656 2.863282-6.964843 6.21875l-18.570313 83.6875h-64.152344l16.953126-101.929687c.40625-2.453125-.351563-4.957031-2.050782-6.773437-1.699218-1.816407-4.144531-2.738282-6.621094-2.496094-58.449218 6.078125-106.863281 48.046875-121.175781 105.039062zm47.449219-39.441406c-.007812-5.335938.933594-10.636719 2.773438-15.648438l-.375-.132812c17.242187-16.601562 38.933593-27.84375 62.441406-32.363281l-15.617188 93.746093h-3.625c-25.167968-.035156-45.5625-20.429687-45.597656-45.601562zm0 0"/></svg>