<?xml version="1.0" encoding="utf-8"?>
<!-- Generator: Adobe Illustrator 22.1.0, SVG Export Plug-In . SVG Version: 6.00 Build 0)  -->
<svg version="1.1" id="Camada_1" xmlns="http://www.w3.org/2000/svg" xmlns:xlink="http://www.w3.org/1999/xlink" x="0px" y="0px"
	 viewBox="0 0 841.9 595.3" style="enable-background:new 0 0 841.9 595.3;" xml:space="preserve">
<style type="text/css">
	.st0{opacity:0.1;}
	.st1{fill:#4A72B2;}
	.st2{fill:#E3AD3F;}
	.st3{fill:#FFFFFF;}
	.st4{fill-rule:evenodd;clip-rule:evenodd;fill:#E3AD3F;}
	.st5{font-family:'Montserrat-Regular';}
	.st6{font-size:27.9897px;}
</style>
<g>
	<g>
		<g opacity="0.1">
			<path fill="#4A72B2" d="M320.8,233.3c11.6-1,23.4,2.8,31.4,11.6c8.4,9.2,11.5,21.9,10.7,34.1c-0.9,15.6-7.8,28.1-16.2,40.9
				c2.3,4.8,3.4,7.2,5.6,12.1c-7.3,3.4-11,5.1-18.2,8.5c-2.5-5.2-3.8-7.8-6.4-13c-12.7,2.5-27.5,1.1-37.3-7.6
				c-9.1-8.1-13.5-20.5-13.8-32.6c-0.4-13.1,3.7-26.3,12-36.6C296.5,240.8,308.2,234.4,320.8,233.3z M320.8,257.3
				c-6,0.4-11.3,3.2-15.6,8.2c-4.3,5-6.6,11.3-6.8,18.9c-0.2,7.6,2.1,13.6,6.8,18.1c4.7,4.5,9.6,6.4,14.7,5.8
				c-2-4.5-3.1-6.8-5.1-11.3c6.2-3.2,9.3-4.8,15.5-7.9c2.2,4.2,3.4,6.2,5.6,10.4c3.5-5.1,5.4-11.2,5.6-18.3c0.2-7.1-1.6-13-5.6-17.7
				C331.9,258.9,326.8,256.8,320.8,257.3z"/>
			<path fill="#4A72B2" d="M436.6,309.3c-0.2,0.5-0.4,1-0.7,1.5c-3.5,3.6-6.6,6.1-9.4,7.7c-6.5,3.6-13.5,5.6-21.1,6
				c-4.8,0.2-9.3-0.4-13.6-1.7c-5.9-1.9-10.5-4.9-13.7-9.3c-3.2-4.3-4.9-9.9-4.9-16.8c-0.1-7.4,2-13.8,6.3-19
				c4.3-5.3,10.3-8.2,17.9-8.7c-6.8-7.3-10.2-11-17.2-18.2c-2.4-6.4-2.4-12.4,0.2-18c19.5-1.5,39-2.3,58.5-2.8
				c4.5,6.4,3.8,13.3-1.9,20.6c-10.7-0.3-21.5-0.6-32.2-0.7c19.3,19.3,37.9,39.1,55.8,59.7c-2.6,7.5-6.1,12.6-10.6,15.2
				C444.8,318.5,442.1,315.4,436.6,309.3z M409.5,280.1c-0.1,0-0.1,0-0.2,0c-11.4,3.6-16.6,8-15.7,13c0.9,5.1,3,8.4,6.4,10.1
				c3.4,1.7,7.2,1.9,11.5,0.9c4.3-1,8.5-2.8,12.5-5.3c0.7-0.4,1.3-0.8,2-1.2C419.5,290.5,416.2,287,409.5,280.1z"/>
			<path fill="#4A72B2" d="M527.9,234.9c6.1,31.2,11.7,62.4,16.5,93.8c-6.3,3-14,3.1-23.2,0.4c-1.1-7-1.7-10.4-2.9-17.4
				c-9.8,0.2-14.7,0.4-24.4,0.8c-2.9,6.7-4.4,10-7.2,16.6c-9.6,0.6-16.6-1.1-21.1-5.3c13-30.4,26.8-60.5,41.4-90.2
				C514.6,230.2,521.7,230.6,527.9,234.9z M513.2,263.9c-4.5,10-8.9,20.1-13.2,30.2c6.5-0.2,9.8-0.3,16.3-0.4
				C515.3,283.8,514.3,273.8,513.2,263.9z"/>
		</g>
	</g>
	<g>
		<g>
			<path fill="#E3AD3F" d="M317.7,226.2c11.6-1,23.4,2.8,31.4,11.6c8.4,9.2,11.5,21.9,10.7,34.1c-0.9,15.6-7.8,28.1-16.2,40.9
				c2.3,4.8,3.4,7.2,5.6,12.1c-7.3,3.4-11,5.1-18.2,8.5c-2.5-5.2-3.8-7.8-6.4-13c-12.7,2.5-27.5,1.1-37.3-7.6
				c-9.1-8.1-13.5-20.5-13.8-32.6c-0.4-13.1,3.7-26.3,12-36.6C293.5,233.7,305.1,227.2,317.7,226.2z M317.7,250.1
				c-6,0.4-11.3,3.2-15.6,8.2c-4.3,5-6.6,11.3-6.8,18.9c-0.2,7.6,2.1,13.6,6.8,18.1c4.7,4.5,9.6,6.4,14.7,5.8
				c-2-4.5-3.1-6.8-5.1-11.3c6.2-3.2,9.3-4.8,15.5-7.9c2.2,4.2,3.4,6.2,5.6,10.4c3.5-5.1,5.4-11.2,5.6-18.3c0.2-7.1-1.6-13-5.6-17.7
				C328.8,251.8,323.8,249.7,317.7,250.1z"/>
			<path fill="#E3AD3F" d="M433.6,302.1c-0.2,0.5-0.4,1-0.7,1.5c-3.5,3.6-6.6,6.1-9.4,7.7c-6.5,3.6-13.5,5.6-21.1,6
				c-4.8,0.2-9.3-0.4-13.6-1.7c-5.9-1.9-10.5-4.9-13.7-9.3c-3.2-4.3-4.9-9.9-4.9-16.8c-0.1-7.4,2-13.8,6.3-19
				c4.3-5.3,10.3-8.2,17.9-8.7c-6.8-7.3-10.2-11-17.2-18.2c-2.4-6.4-2.4-12.4,0.2-18c19.5-1.5,39-2.3,58.5-2.8
				c4.5,6.4,3.8,13.3-1.9,20.6c-10.7-0.3-21.5-0.6-32.2-0.7c19.3,19.3,37.9,39.1,55.8,59.7c-2.6,7.5-6.1,12.6-10.6,15.2
				C441.8,311.4,439.1,308.3,433.6,302.1z M406.4,272.9c-0.1,0-0.1,0-0.2,0c-11.4,3.6-16.6,8-15.7,13c0.9,5.1,3,8.4,6.4,10.1
				c3.4,1.7,7.2,1.9,11.5,0.9c4.3-1,8.5-2.8,12.5-5.3c0.7-0.4,1.3-0.8,2-1.2C416.4,283.4,413.1,279.9,406.4,272.9z"/>
			<path fill="#E3AD3F" d="M524.9,227.8c6.1,31.2,11.7,62.4,16.5,93.8c-6.3,3-14,3.1-23.2,0.4c-1.1-7-1.7-10.4-2.9-17.4
				c-9.8,0.2-14.7,0.4-24.4,0.8c-2.9,6.7-4.4,10-7.2,16.7c-9.6,0.6-16.6-1.1-21.1-5.3c13-30.4,26.8-60.5,41.4-90.2
				C511.6,223.1,518.7,223.5,524.9,227.8z M510.2,256.8c-4.5,10-8.9,20.1-13.2,30.2c6.5-0.2,9.8-0.3,16.3-0.4
				C512.3,276.6,511.3,266.7,510.2,256.8z"/>
		</g>
	</g>
	<g>
		<g>
			<path fill="#FFFFFF" d="M326.8,360.8c0.3,0.7-0.1,1.6-0.7,2.1c-0.4-0.3-1.1-0.5-2-0.6c-0.8-0.1-1.5,0.1-2,0.7
				c-0.5,0.5-0.8,1.3-0.9,2.1c-0.1,0.5-0.1,1.2,0.3,2c0.4,0.7,0.9,1.2,1.7,1.2c0.8,0,1.7-0.1,2.7-0.4c0.4,0.7,0.4,1.5,0.1,2.2
				c-1.3,0.6-2.3,0.9-3.1,0.8c-1.4-0.1-2.5-0.7-3.2-1.5c-0.9-1.1-1.2-2.7-0.9-4.8c0.2-1.6,0.8-3,1.6-3.7c1-0.9,2.4-1.2,4-1.1
				C325.6,359.7,326.5,360.2,326.8,360.8z"/>
			<path fill="#FFFFFF" d="M329.6,359.9c2.4-0.2,4.2-0.3,5.1-0.1c1,0.2,1.6,0.6,1.9,1.3c0.3,0.7,0.3,1.7,0,2.9c-0.2,1.2-1.1,2-2.7,2.4
				c1,1.3,1.6,2,2.6,3.3c-0.5,0.9-1.3,1.2-2.4,0.9c-1-1.5-1.5-2.2-2.6-3.7c-0.3,0-0.5,0.1-0.9,0.1c-0.1,1.4-0.2,2-0.3,3.4
				c-1,0.3-1.8,0.3-2.4-0.2c0.4-3.9,0.6-5.9,0.9-9.8C329.1,360.2,329.3,360.1,329.6,359.9z M331.2,361.9c-0.1,1.2-0.2,1.8-0.3,3
				c2-0.1,3.2-0.5,3.4-1.1c0.2-0.6,0.3-1.1,0-1.5C334.1,361.8,333,361.7,331.2,361.9z"/>
			<path fill="#FFFFFF" d="M345.7,359.8c0.2,0.8,0.2,1.5-0.1,2.1c-1.9,0.1-2.9,0.1-4.8,0.2c-0.1,0.7-0.1,1.1-0.1,1.8c1.6,0,2.4,0,4-0.1
				c0.4,0.7,0.3,1.4-0.1,2c-1.6,0.1-2.4,0.1-4,0.2c-0.1,0.9-0.1,1.3-0.2,2.2c2-0.1,3-0.1,4.9-0.1c0.4,0.8,0.4,1.6-0.2,2.4
				c-2.8,0.1-4.1,0.2-6.9,0.3c-0.2,0-0.3-0.2-0.4-0.5c0.3-3.9,0.4-5.9,0.7-9.8c0.1-0.2,0.2-0.3,0.3-0.4
				C341.6,359.9,343,359.8,345.7,359.8z"/>
			<path fill="#FFFFFF" d="M353,359.7c1.2,4.1,1.8,6.2,2.9,10.3c-0.7,0.4-1.5,0.5-2.6,0.3c-0.2-0.8-0.3-1.2-0.5-1.9
				c-1.1,0.1-1.6,0.2-2.7,0.3c-0.3,0.8-0.4,1.2-0.7,1.9c-1.1,0.1-1.9,0-2.4-0.5c1.5-4.2,2.3-6.3,3.9-10.5
				C351.6,359.3,352.3,359.3,353,359.7z M351.8,363.1c-0.5,1.4-0.7,2.1-1.2,3.5c0.7-0.1,1.1-0.1,1.8-0.2
				C352.1,365.1,352,364.5,351.8,363.1z"/>
			<path fill="#FFFFFF" d="M365.4,359.8c0.3,0.8,0.3,1.5-0.1,2.3c-1.1,0-1.6,0-2.7,0c-0.2,3.3-0.2,5-0.4,8.4c-0.7,0.3-1.6,0.3-2.5,0
				c0.2-3.3,0.3-4.9,0.5-8.2c-1.1,0-1.6,0-2.7,0.1c-0.5-0.9-0.6-1.7-0.1-2.3C360.7,359.9,362.3,359.9,365.4,359.8z"/>
			<path fill="#FFFFFF" d="M374.7,359.8c0.2,0.8,0.2,1.5-0.1,2.1c-1.9,0.1-2.9,0.1-4.8,0.2c-0.1,0.7-0.1,1.1-0.1,1.8c1.6,0,2.4,0,4-0.1
				c0.4,0.7,0.3,1.4-0.1,2c-1.6,0.1-2.4,0.1-4,0.2c-0.1,0.9-0.1,1.3-0.2,2.2c2-0.1,3-0.1,4.9-0.1c0.4,0.8,0.4,1.6-0.2,2.4
				c-2.8,0.1-4.1,0.2-6.9,0.3c-0.2,0-0.3-0.2-0.4-0.5c0.3-3.9,0.4-5.9,0.7-9.8c0.1-0.2,0.2-0.3,0.3-0.4
				C370.6,359.9,372,359.8,374.7,359.8z"/>
			<path fill="#FFFFFF" d="M382.4,359.7c0.7,1.5,1.1,2.2,1.8,3.7c0.9-1.5,1.4-2.2,2.3-3.7c1-0.1,1.8,0.2,2.2,0.7c-1.4,2-2.1,3-3.5,5
				c-0.1,2-0.1,3-0.2,5.1c-0.9,0.3-1.7,0.3-2.4,0c0.1-2,0.1-3.1,0.2-5.1c-1.1-2-1.6-3-2.7-4.9C380.6,359.9,381.4,359.7,382.4,359.7z
				"/>
			<path fill="#FFFFFF" d="M395,359.8c1.3,0,2.4,0.5,3.2,1.5c0.8,1,1.1,2.3,1,3.9c-0.1,1.6-0.7,2.9-1.6,3.9c-0.9,1-2.1,1.5-3.4,1.5
				c-1.4,0-2.5-0.5-3.3-1.5c-0.9-1-1.2-2.3-1.1-3.8c0.1-1.6,0.7-2.9,1.7-3.9C392.5,360.3,393.7,359.8,395,359.8z M394.8,362.5
				c-0.6,0-1.2,0.2-1.7,0.8c-0.5,0.5-0.8,1.2-0.9,2.1c-0.1,0.9,0.1,1.6,0.5,2.1c0.5,0.6,1,0.8,1.7,0.8c0.7,0,1.2-0.3,1.7-0.8
				s0.7-1.2,0.8-2c0.1-0.8-0.1-1.5-0.5-2C396,362.7,395.5,362.5,394.8,362.5z"/>
			<path fill="#FFFFFF" d="M400.9,359.9c0.9-0.2,1.7-0.2,2.5,0c-0.3,3.8-0.4,6-0.4,6.6s0.2,1.1,0.4,1.4c0.2,0.3,0.7,0.5,1.2,0.5
				c0.6,0,1-0.2,1.2-0.5c0.2-0.3,0.4-0.8,0.4-1.4c0.1-0.6,0.2-2.8,0.3-6.6c0.7-0.2,1.5-0.2,2.4,0c-0.2,5.1-0.5,8-0.8,8.6
				c-0.3,0.6-0.7,1.1-1.3,1.5c-0.6,0.4-1.4,0.6-2.3,0.6c-1,0-1.8-0.2-2.5-0.7c-0.7-0.5-1.2-1.2-1.4-2
				C400.4,367,400.5,364.4,400.9,359.9z"/>
			<path fill="#FFFFFF" d="M411.5,359.9c2.4-0.2,4.2-0.3,5.1-0.1c1,0.2,1.6,0.6,1.9,1.3c0.3,0.7,0.3,1.7,0,2.9c-0.2,1.2-1.1,2-2.7,2.4
				c1,1.3,1.6,2,2.6,3.3c-0.5,0.9-1.3,1.2-2.4,0.9c-1-1.5-1.5-2.2-2.6-3.7c-0.3,0-0.5,0.1-0.9,0.1c-0.1,1.4-0.2,2-0.3,3.4
				c-1,0.3-1.8,0.3-2.4-0.2c0.4-3.9,0.6-5.9,0.9-9.8C411.1,360.2,411.2,360.1,411.5,359.9z M413.1,361.9c-0.1,1.2-0.2,1.8-0.3,3
				c2-0.1,3.2-0.5,3.4-1.1c0.2-0.6,0.3-1.1,0-1.5C416,361.8,415,361.7,413.1,361.9z"/>
			<path fill="#FFFFFF" d="M429.5,359.8c1.3,0,2.4,0.5,3.2,1.5c0.8,1,1.1,2.3,1,3.9c-0.1,1.6-0.8,3.1-2.1,4.5c0.2,0.6,0.3,0.8,0.6,1.4
				c-0.9,0.3-1.3,0.5-2.2,0.8c-0.2-0.6-0.4-0.9-0.6-1.5c-1.9,0.1-3.3-0.3-4.1-1.3c-0.9-1-1.2-2.3-1.1-3.8c0.1-1.6,0.7-2.9,1.7-3.9
				C426.9,360.3,428.1,359.8,429.5,359.8z M429.3,362.5c-0.6,0-1.2,0.2-1.7,0.8c-0.5,0.5-0.8,1.2-0.9,2.1c-0.1,0.9,0.1,1.6,0.5,2.1
				c0.5,0.6,1,0.8,1.6,0.8c-0.2-0.5-0.3-0.8-0.5-1.3c0.7-0.3,1.1-0.4,1.8-0.7c0.2,0.5,0.3,0.7,0.5,1.2c0.4-0.5,0.7-1.2,0.8-2
				c0.1-0.8-0.1-1.5-0.5-2C430.4,362.7,429.9,362.5,429.3,362.5z"/>
			<path fill="#FFFFFF" d="M435.3,359.9c0.9-0.2,1.7-0.2,2.5,0c-0.3,3.8-0.4,6-0.4,6.6c0,0.6,0.2,1.1,0.4,1.4c0.2,0.3,0.7,0.5,1.2,0.5
				c0.6,0,1-0.2,1.2-0.5c0.2-0.3,0.4-0.8,0.4-1.4c0.1-0.6,0.2-2.8,0.3-6.6c0.7-0.2,1.5-0.2,2.4,0c-0.2,5.1-0.5,8-0.8,8.6
				c-0.3,0.6-0.7,1.1-1.3,1.5c-0.6,0.4-1.4,0.6-2.3,0.6c-1,0-1.8-0.2-2.5-0.7c-0.7-0.5-1.2-1.2-1.4-2
				C434.8,367,434.9,364.4,435.3,359.9z"/>
			<path fill="#FFFFFF" d="M452.2,359.8c0.2,0.8,0.2,1.5-0.1,2.1c-1.9,0.1-2.9,0.1-4.8,0.2c-0.1,0.7-0.1,1.1-0.1,1.8c1.6,0,2.4,0,4-0.1
				c0.4,0.7,0.3,1.4-0.1,2c-1.6,0.1-2.4,0.1-4,0.2c-0.1,0.9-0.1,1.3-0.2,2.2c2-0.1,3-0.1,4.9-0.1c0.4,0.8,0.4,1.6-0.2,2.4
				c-2.8,0.1-4.1,0.2-6.9,0.3c-0.2,0-0.3-0.2-0.4-0.5c0.3-3.9,0.4-5.9,0.7-9.8c0.1-0.2,0.2-0.3,0.3-0.4
				C448,359.9,449.4,359.8,452.2,359.8z"/>
			<path fill="#FFFFFF" d="M453.9,369.4c-0.4-0.6-0.1-1.9,0.6-2.5c1.3,0.7,2.2,1.3,2.7,1.3c0.9,0.1,1.7-0.3,1.7-0.8
				c0-0.4-0.3-0.8-1-1.2c-0.8-0.4-1.1-0.5-1.9-0.9c-1.2-0.6-1.9-1.5-1.8-2.6c0-0.6,0.3-1.2,0.7-1.7s0.9-0.8,1.4-1
				c0.5-0.2,1.1-0.2,1.8-0.2c1.3,0.1,2.4,0.4,3.4,1.1c0,0.9-0.3,1.7-0.9,2.4c-1.2-0.9-2.2-1.2-2.9-1.2c-0.6,0-1,0.2-1.1,0.7
				c0,0.3,0.5,0.8,1.4,1.2c1,0.5,1.9,0.9,2.5,1.5c0.5,0.6,0.8,1.3,0.7,2.1c-0.1,1.1-0.6,1.9-1.6,2.5c-0.6,0.4-1.6,0.6-2.7,0.5
				C456,370.5,454.3,370.1,453.9,369.4z"/>
			<path fill="#FFFFFF" d="M471.1,359.8c0.3,0.8,0.3,1.5-0.1,2.3c-1.1,0-1.6,0-2.7,0c-0.2,3.3-0.2,5-0.4,8.4c-0.7,0.3-1.6,0.3-2.5,0
				c0.2-3.3,0.3-4.9,0.5-8.2c-1.1,0-1.6,0-2.7,0.1c-0.5-0.9-0.6-1.7-0.1-2.3C466.3,359.9,467.9,359.9,471.1,359.8z"/>
			<path fill="#FFFFFF" d="M473.4,359.8c0.7-0.2,1.6-0.1,2.4,0.1c-0.3,4.2-0.5,6.3-0.9,10.6c-1,0.3-1.8,0.2-2.5-0.1
				C472.8,366.2,473,364.1,473.4,359.8z"/>
			<path fill="#FFFFFF" d="M482.2,359.8c1.3,0,2.4,0.5,3.2,1.5c0.8,1,1.1,2.3,1,3.9s-0.7,2.9-1.6,3.9c-0.9,1-2.1,1.5-3.4,1.5
				c-1.4,0-2.5-0.5-3.3-1.5c-0.9-1-1.2-2.3-1.1-3.8c0.1-1.6,0.7-2.9,1.7-3.9C479.6,360.3,480.8,359.8,482.2,359.8z M482,362.5
				c-0.6,0-1.2,0.2-1.7,0.8c-0.5,0.5-0.8,1.2-0.9,2.1c-0.1,0.9,0.1,1.6,0.5,2.1c0.5,0.6,1,0.8,1.7,0.8s1.2-0.3,1.7-0.8
				s0.7-1.2,0.8-2c0.1-0.8-0.1-1.5-0.5-2C483.1,362.7,482.6,362.5,482,362.5z"/>
			<path fill="#FFFFFF" d="M490.2,359.9c1.4,2.3,2.1,3.5,3.5,5.8c0.1-2.3,0.2-3.4,0.4-5.7c0.8-0.4,1.5-0.4,2.2,0
				c-0.3,4.1-0.4,6.1-0.6,10.2c-0.5,0.4-1.2,0.5-2,0.2c-1.3-2.3-2-3.5-3.3-5.9c-0.2,2.3-0.2,3.5-0.4,5.9c-1.1,0.3-1.9,0.2-2.4-0.2
				c0.3-4,0.4-6.1,0.6-10.1C488.4,359.8,489.1,359.7,490.2,359.9z"/>
			<path fill="#FFFFFF" d="M497.5,369.4c-0.4-0.6-0.1-1.9,0.6-2.5c1.3,0.7,2.2,1.3,2.7,1.3c0.9,0.1,1.7-0.3,1.7-0.8
				c0-0.4-0.3-0.8-1-1.2c-0.8-0.4-1.1-0.5-1.9-0.9c-1.2-0.6-1.9-1.5-1.8-2.6c0-0.6,0.3-1.2,0.7-1.7c0.4-0.5,0.9-0.8,1.4-1
				c0.5-0.2,1.1-0.2,1.8-0.2c1.3,0.1,2.4,0.4,3.4,1.1c0,0.9-0.3,1.7-0.9,2.4c-1.2-0.9-2.2-1.2-2.9-1.2c-0.6,0-1,0.2-1.1,0.7
				c0,0.3,0.5,0.8,1.4,1.2c1,0.5,1.9,0.9,2.5,1.5c0.5,0.6,0.8,1.3,0.7,2.1c-0.1,1.1-0.6,1.9-1.6,2.5c-0.6,0.4-1.6,0.6-2.7,0.5
				C499.7,370.5,498,370.1,497.5,369.4z"/>
		</g>
	</g>
	<g>
		<path fill-rule="evenodd" clip-rule="evenodd" fill="#E3AD3F" d="M518.1,366.5c-0.2-0.1-0.4-0.5-0.6-0.7c-0.2-0.2-0.4-0.5-0.6-0.7c-0.4-0.5-0.8-1-1.1-1.4
			c-0.5-0.6-0.7-1-1.5-1.1c-0.8-0.1-1.7,0.2-2.2,0.5c-0.7,0.4-1,0.9-0.4,1.6c1.5,1.8,3,3.8,4.6,5.7c0.5,0.6,0.8,0.9,1.9,0.7
			c0.7-0.1,1.5-0.4,1.8-0.8c0.2-0.3,0.7-1.3,0.9-1.7c1.4-2.9,3.7-7.1,5.6-9.8c1.1-1.5,2.1-2.9,3.4-4.3c0.4-0.4,1-1.1,0.1-1.5
			c-0.7-0.3-1.7-0.2-2.3,0c-0.6,0.2-1,0.7-1.4,1.2c-0.4,0.5-0.7,0.9-1.1,1.4l-1.1,1.5c-0.2,0.3-0.8,1.1-1.1,1.5
			c-1.1,1.7-1.9,2.9-3,4.7L518.1,366.5z"/>
	</g>
	<text transform="matrix(1.0494 0 0 1 298.6416 373.002)" font-family="Montserrat-Regular" font-size="27.9897px" fill="#E3AD3F" >x</text>
</g>
</svg>
