<svg xmlns="http://www.w3.org/2000/svg" viewBox="0 0 841.89 595.28"><defs><style>.cls-1{isolation:isolate;}.cls-2{opacity:0.1;mix-blend-mode:multiply;}.cls-3{fill:#4a72b2;}.cls-4,.cls-6,.cls-7{fill:#e3ad3f;}.cls-5{fill:#fff;}.cls-6{fill-rule:evenodd;}.cls-7{font-size:27.99px;font-family:Montserrat-Regular, Montserrat;}</style></defs><title>logo</title><g class="cls-1"><g id="Camada_1" data-name="Camada 1"><g class="cls-2"><path class="cls-3" d="M320.77,233.28c11.6-1,23.39,2.79,31.37,11.55,8.4,9.22,11.47,21.86,10.74,34.06-.95,15.57-7.81,28.13-16.23,40.89,2.28,4.82,3.41,7.23,5.64,12.05-7.32,3.36-11,5.07-18.17,8.55-2.55-5.23-3.83-7.84-6.43-13.05-12.73,2.54-27.5,1.08-37.34-7.61-9.13-8.06-13.45-20.48-13.81-32.56a55.58,55.58,0,0,1,12-36.56A47,47,0,0,1,320.77,233.28Zm0,24a22.38,22.38,0,0,0-15.63,8.17c-4.34,5-6.58,11.31-6.77,18.93s2.13,13.64,6.84,18.14,9.56,6.44,14.65,5.82c-2-4.51-3.05-6.76-5.12-11.26,6.16-3.22,9.26-4.8,15.51-7.93,2.25,4.16,3.36,6.24,5.57,10.4a33.56,33.56,0,0,0,5.59-18.29c.23-7.11-1.6-13-5.58-17.65A17.27,17.27,0,0,0,320.78,257.25Z"/><path class="cls-3" d="M436.62,309.26a13.4,13.4,0,0,1-.69,1.51,45.39,45.39,0,0,1-9.43,7.7,46.81,46.81,0,0,1-21.06,6,39,39,0,0,1-13.56-1.72c-5.93-1.87-10.48-4.94-13.67-9.28s-4.85-9.94-4.92-16.78a28.82,28.82,0,0,1,6.3-19c4.29-5.28,10.28-8.22,17.92-8.75-6.78-7.32-10.22-10.95-17.22-18.16-2.44-6.36-2.4-12.37.24-18q29.19-2.17,58.49-2.76c4.49,6.45,3.75,13.32-1.92,20.65q-16.11-.52-32.2-.74,29,28.92,55.84,59.68-3.92,11.33-10.62,15.19C444.8,318.49,442.1,315.4,436.62,309.26Zm-27.14-29.2h-.2c-11.4,3.55-16.56,8-15.68,13.05s3,8.41,6.39,10.06a16.58,16.58,0,0,0,11.5.91A42.4,42.4,0,0,0,424,298.77c.67-.37,1.33-.79,2-1.25C419.48,290.49,416.18,287,409.48,280.06Z"/><path class="cls-3" d="M527.9,234.91q9.23,46.75,16.51,93.84c-6.35,3-14,3.13-23.21.39-1.14-7-1.73-10.43-2.93-17.39-9.8.2-14.69.35-24.45.78-2.92,6.65-4.36,10-7.21,16.65-9.62.59-16.61-1.12-21.1-5.29q19.5-45.64,41.39-90.15C514.62,230.18,521.69,230.58,527.9,234.91Zm-14.71,29Q506.49,279,500,294.11c6.53-.21,9.8-.29,16.34-.4Q514.84,278.8,513.19,263.91Z"/></g><path class="cls-4" d="M317.73,226.16c11.6-1,23.39,2.8,31.37,11.56,8.4,9.21,11.48,21.85,10.74,34-.95,15.57-7.81,28.13-16.23,40.89,2.28,4.82,3.41,7.23,5.64,12.06-7.32,3.35-11,5.06-18.17,8.54-2.54-5.23-3.83-7.84-6.43-13.05-12.73,2.54-27.5,1.08-37.34-7.61-9.13-8.06-13.45-20.48-13.8-32.55a55.58,55.58,0,0,1,12-36.57A47,47,0,0,1,317.73,226.16Zm0,24a22.38,22.38,0,0,0-15.62,8.17c-4.35,5-6.59,11.32-6.78,18.93s2.13,13.65,6.84,18.14,9.56,6.44,14.65,5.82c-2-4.51-3.05-6.76-5.12-11.26,6.16-3.21,9.27-4.8,15.51-7.93,2.25,4.16,3.36,6.24,5.57,10.41a33.61,33.61,0,0,0,5.59-18.29c.23-7.12-1.6-13-5.58-17.66A17.27,17.27,0,0,0,317.74,250.13Z"/><path class="cls-4" d="M433.58,302.14a12.64,12.64,0,0,1-.69,1.51,45.55,45.55,0,0,1-9.43,7.71,46.8,46.8,0,0,1-21.06,6,38.78,38.78,0,0,1-13.56-1.71c-5.93-1.87-10.48-4.95-13.66-9.29s-4.86-9.94-4.92-16.78a28.79,28.79,0,0,1,6.3-19c4.28-5.27,10.28-8.22,17.91-8.75-6.78-7.31-10.22-10.95-17.22-18.16-2.44-6.36-2.4-12.37.24-18q29.2-2.19,58.49-2.77c4.49,6.45,3.76,13.32-1.92,20.65q-16.11-.52-32.2-.74,29,28.92,55.84,59.68c-2.61,7.55-6.14,12.6-10.62,15.2C441.76,311.37,439.06,308.28,433.58,302.14ZM406.44,273h-.2c-11.4,3.55-16.56,8-15.67,13.05s3,8.4,6.39,10.05a16.5,16.5,0,0,0,11.49.91,42.57,42.57,0,0,0,12.5-5.31c.66-.37,1.32-.79,2-1.24C416.45,283.37,413.15,279.88,406.44,273Z"/><path class="cls-4" d="M524.86,227.79q9.23,46.77,16.51,93.84c-6.34,3-14,3.14-23.21.4-1.14-7-1.73-10.44-2.93-17.4-9.8.2-14.69.36-24.45.78-2.92,6.65-4.36,10-7.2,16.65-9.63.59-16.62-1.12-21.1-5.28q19.5-45.64,41.38-90.16C511.58,223.06,518.65,223.46,524.86,227.79Zm-14.71,29q-6.7,15.06-13.22,30.2c6.53-.21,9.8-.29,16.34-.4Q511.8,271.68,510.15,256.79Z"/><path class="cls-5" d="M326.77,360.81a1.92,1.92,0,0,1-.69,2.07,5.2,5.2,0,0,0-2-.64,2.24,2.24,0,0,0-2,.68,4.28,4.28,0,0,0-.92,2.05,3.22,3.22,0,0,0,.31,2,1.92,1.92,0,0,0,1.7,1.2,7.83,7.83,0,0,0,2.74-.44,2.42,2.42,0,0,1,.11,2.17,6.9,6.9,0,0,1-3.07.8,4.38,4.38,0,0,1-3.16-1.53,6.17,6.17,0,0,1-.9-4.81,6.07,6.07,0,0,1,1.6-3.71,5.3,5.3,0,0,1,4-1.06A2.65,2.65,0,0,1,326.77,360.81Z"/><path class="cls-5" d="M329.6,359.93a23.14,23.14,0,0,1,5.12-.1,2.13,2.13,0,0,1,1.85,1.32,5.43,5.43,0,0,1,0,2.9q-.36,1.81-2.73,2.4l2.61,3.28a1.83,1.83,0,0,1-2.42.91L331.49,367l-.86.08-.35,3.4a2.36,2.36,0,0,1-2.4-.23c.37-3.93.56-5.9.93-9.83Zm1.55,2-.31,3c2-.13,3.16-.48,3.4-1a1.78,1.78,0,0,0,0-1.54C334.06,361.84,333,361.72,331.15,361.94Z"/><path class="cls-5" d="M345.75,359.76a2.7,2.7,0,0,1-.13,2.11l-4.81.15-.13,1.84,3.95-.08a1.78,1.78,0,0,1-.09,2l-4,.17-.2,2.22,4.94-.14a2.24,2.24,0,0,1-.17,2.39l-6.89.26a.49.49,0,0,1-.39-.45c.27-3.94.4-5.91.67-9.85a.62.62,0,0,1,.34-.4Z"/><path class="cls-5" d="M353,359.7,356,370a3.5,3.5,0,0,1-2.62.35c-.22-.77-.32-1.16-.53-1.93l-2.73.33-.68,1.94a3,3,0,0,1-2.44-.45l3.85-10.49A2,2,0,0,1,353,359.7Zm-1.26,3.43-1.15,3.53,1.79-.21C352.14,365.12,352,364.46,351.75,363.13Z"/><path class="cls-5" d="M365.44,359.78a2.59,2.59,0,0,1-.06,2.3l-2.72,0-.4,8.35a3.29,3.29,0,0,1-2.45,0c.2-3.29.29-4.94.48-8.24l-2.67.06a1.88,1.88,0,0,1-.07-2.29Z"/><path class="cls-5" d="M374.73,359.76a2.74,2.74,0,0,1-.13,2.11l-4.81.15c-.06.74-.08,1.11-.13,1.84l3.95-.08a1.78,1.78,0,0,1-.09,2l-4,.17-.2,2.22,4.94-.14a2.22,2.22,0,0,1-.17,2.39l-6.88.26a.49.49,0,0,1-.39-.45l.66-9.85a.63.63,0,0,1,.35-.4Z"/><path class="cls-5" d="M382.45,359.74l1.76,3.71,2.31-3.67a2.45,2.45,0,0,1,2.16.69l-3.48,5c-.09,2-.13,3-.21,5.06a3.27,3.27,0,0,1-2.37,0l.2-5.11-2.7-4.92A2.63,2.63,0,0,1,382.45,359.74Z"/><path class="cls-5" d="M395,359.75a3.87,3.87,0,0,1,3.22,1.55,5.36,5.36,0,0,1,1,3.91,6.55,6.55,0,0,1-1.62,3.9,4.45,4.45,0,0,1-3.44,1.54,4.21,4.21,0,0,1-3.34-1.5,4.94,4.94,0,0,1-1.09-3.85,6.28,6.28,0,0,1,1.75-3.94A4.76,4.76,0,0,1,395,359.75Zm-.21,2.71a2.33,2.33,0,0,0-1.74.76,3.39,3.39,0,0,0-.94,2,2.62,2.62,0,0,0,.54,2.12,2,2,0,0,0,1.71.8,2.27,2.27,0,0,0,1.68-.85,3.55,3.55,0,0,0,.79-2,2.93,2.93,0,0,0-.47-2A1.87,1.87,0,0,0,394.83,362.46Z"/><path class="cls-5" d="M400.88,360a6,6,0,0,1,2.53,0q-.45,5.7-.42,6.63a2.59,2.59,0,0,0,.4,1.41,1.44,1.44,0,0,0,1.23.48,1.3,1.3,0,0,0,1.2-.52,3.21,3.21,0,0,0,.42-1.38c.05-.57.16-2.78.3-6.64a5.7,5.7,0,0,1,2.44,0c-.23,5.12-.5,8-.79,8.63a3.62,3.62,0,0,1-1.32,1.53,4.17,4.17,0,0,1-2.33.59A4.52,4.52,0,0,1,402,370a3.18,3.18,0,0,1-1.4-2.05Q400.29,366.59,400.88,360Z"/><path class="cls-5" d="M411.55,359.93a23.14,23.14,0,0,1,5.12-.1,2.13,2.13,0,0,1,1.85,1.32,5.43,5.43,0,0,1,0,2.9q-.36,1.81-2.73,2.4l2.61,3.28a1.83,1.83,0,0,1-2.42.91L413.44,367l-.86.08-.35,3.4a2.36,2.36,0,0,1-2.4-.23c.37-3.93.56-5.9.93-9.83Zm1.55,2c-.12,1.18-.19,1.78-.31,3,2-.13,3.16-.48,3.4-1a1.78,1.78,0,0,0,0-1.54C416,361.84,415,361.72,413.1,361.94Z"/><path class="cls-5" d="M429.46,359.75a3.85,3.85,0,0,1,3.22,1.55,5.31,5.31,0,0,1,1,3.91,8.09,8.09,0,0,1-2,4.52l.56,1.4L430,372c-.24-.61-.37-.91-.62-1.53-1.89.15-3.26-.27-4.13-1.27a4.93,4.93,0,0,1-1.08-3.85,6.33,6.33,0,0,1,1.74-3.94A4.78,4.78,0,0,1,429.46,359.75Zm-.2,2.71a2.35,2.35,0,0,0-1.75.76,3.39,3.39,0,0,0-.94,2,2.62,2.62,0,0,0,.55,2.12,1.94,1.94,0,0,0,1.56.82l-.45-1.33,1.78-.74.53,1.22a3.72,3.72,0,0,0,.75-2,2.93,2.93,0,0,0-.47-2A1.86,1.86,0,0,0,429.26,362.46Z"/><path class="cls-5" d="M435.31,360a6,6,0,0,1,2.53,0c-.31,3.8-.44,6-.42,6.63a2.51,2.51,0,0,0,.39,1.41,1.45,1.45,0,0,0,1.24.48,1.3,1.3,0,0,0,1.2-.52,3.36,3.36,0,0,0,.41-1.38q.09-.86.3-6.64a5.75,5.75,0,0,1,2.45,0c-.24,5.12-.5,8-.79,8.63a3.57,3.57,0,0,1-1.33,1.53,4.17,4.17,0,0,1-2.33.59,4.57,4.57,0,0,1-2.53-.71,3.22,3.22,0,0,1-1.4-2.05C434.82,367,434.92,364.38,435.31,360Z"/><path class="cls-5" d="M452.19,359.76a2.7,2.7,0,0,1-.13,2.11l-4.81.15-.13,1.84,3.95-.08a1.78,1.78,0,0,1-.09,2l-4,.17-.2,2.23,4.94-.15a2.2,2.2,0,0,1-.17,2.39l-6.88.26a.49.49,0,0,1-.39-.45c.27-3.94.4-5.91.66-9.85a.63.63,0,0,1,.35-.4Z"/><path class="cls-5" d="M453.87,369.41a2.23,2.23,0,0,1,.56-2.53,11.35,11.35,0,0,0,2.75,1.34c.89.13,1.68-.3,1.74-.77s-.3-.8-1-1.18l-1.89-.9a3,3,0,0,1-1.84-2.59,2.89,2.89,0,0,1,.68-1.73,2.85,2.85,0,0,1,1.38-1,5.22,5.22,0,0,1,1.83-.18,6.88,6.88,0,0,1,3.41,1.08,3.15,3.15,0,0,1-.87,2.36,5.46,5.46,0,0,0-2.86-1.22c-.61,0-1,.16-1.07.7,0,.31.47.78,1.42,1.21a8.13,8.13,0,0,1,2.48,1.52,2.64,2.64,0,0,1,.72,2.07,3.1,3.1,0,0,1-1.58,2.54,4.09,4.09,0,0,1-2.68.52C456,370.54,454.35,370.06,453.87,369.41Z"/><path class="cls-5" d="M471.06,359.78a2.59,2.59,0,0,1-.06,2.3l-2.72,0c-.16,3.34-.23,5-.39,8.35a3.29,3.29,0,0,1-2.45,0c.19-3.29.28-4.94.47-8.24l-2.67.06a1.87,1.87,0,0,1-.06-2.29Z"/><path class="cls-5" d="M473.41,359.85a4.86,4.86,0,0,1,2.41.1c-.35,4.23-.52,6.34-.87,10.57a3.45,3.45,0,0,1-2.54-.11Z"/><path class="cls-5" d="M482.18,359.75a3.87,3.87,0,0,1,3.22,1.55,5.36,5.36,0,0,1,1,3.91,6.55,6.55,0,0,1-1.62,3.9,4.45,4.45,0,0,1-3.44,1.54,4.21,4.21,0,0,1-3.34-1.5,4.94,4.94,0,0,1-1.09-3.85,6.33,6.33,0,0,1,1.74-3.94A4.8,4.8,0,0,1,482.18,359.75Zm-.21,2.71a2.33,2.33,0,0,0-1.74.76,3.39,3.39,0,0,0-.94,2,2.62,2.62,0,0,0,.54,2.12,2,2,0,0,0,1.71.8,2.27,2.27,0,0,0,1.68-.85,3.55,3.55,0,0,0,.79-2,2.88,2.88,0,0,0-.48-2A1.84,1.84,0,0,0,482,362.46Z"/><path class="cls-5" d="M490.17,359.94l3.51,5.8.35-5.66a2.31,2.31,0,0,1,2.18,0c-.25,4.1-.38,6.15-.63,10.24a1.9,1.9,0,0,1-2.05.16c-1.32-2.34-2-3.52-3.29-5.86-.16,2.35-.25,3.52-.41,5.87a2.87,2.87,0,0,1-2.39-.17c.25-4,.38-6.05.63-10.09Q488.6,359.54,490.17,359.94Z"/><path class="cls-5" d="M497.53,369.41a2.23,2.23,0,0,1,.56-2.53,11.35,11.35,0,0,0,2.75,1.34c.89.13,1.68-.3,1.74-.77s-.3-.8-1-1.18l-1.89-.9a3,3,0,0,1-1.84-2.59,2.89,2.89,0,0,1,.68-1.73,2.85,2.85,0,0,1,1.38-1,5.22,5.22,0,0,1,1.83-.18,6.84,6.84,0,0,1,3.41,1.08,3.15,3.15,0,0,1-.87,2.36,5.46,5.46,0,0,0-2.86-1.22c-.61,0-1,.16-1.07.7,0,.31.48.78,1.42,1.21a8.13,8.13,0,0,1,2.48,1.52,2.6,2.6,0,0,1,.72,2.07,3.1,3.1,0,0,1-1.58,2.54,4.09,4.09,0,0,1-2.68.52C499.66,370.54,498,370.06,497.53,369.41Z"/><path class="cls-6" d="M518.12,366.49a4.53,4.53,0,0,1-.59-.69l-.56-.71c-.37-.45-.8-1-1.15-1.42-.49-.65-.69-1.05-1.47-1.14a3.83,3.83,0,0,0-2.16.48c-.67.39-1,.88-.44,1.55,1.52,1.83,3,3.84,4.57,5.7a1.7,1.7,0,0,0,1.91.72,3.12,3.12,0,0,0,1.82-.81,14.18,14.18,0,0,0,.86-1.7,76.62,76.62,0,0,1,5.56-9.76,44.7,44.7,0,0,1,3.35-4.33c.37-.43,1-1.14.08-1.54a3.68,3.68,0,0,0-2.32,0,3.17,3.17,0,0,0-1.4,1.2c-.4.51-.74.89-1.14,1.39l-1.11,1.47c-.19.32-.82,1.11-1.08,1.5-1.1,1.7-1.9,2.88-3,4.74Z"/><text class="cls-7" transform="translate(298.64 373) scale(1.05 1)">x</text></g></g></svg>