<svg id="Layer_3" enable-background="new 0 0 64 64" height="512" viewBox="0 0 64 64" width="512" xmlns="http://www.w3.org/2000/svg"><path d="m43.333 12h-22.666l-6.667-10h36z" fill="#2d4d83"/><path d="m30 32 20-30 9 9-17 25" fill="#4472b2"/><path d="m34 32-20-30-9 9 17 25" fill="#4472b2"/><circle cx="32" cy="47" fill="#f5b953" r="15"/><circle cx="32" cy="47" fill="#f9d18b" r="11"/><path d="m31 58v-16l-3 3-3-3 6-6h4v22z" fill="#4472b2"/><path d="m32 63c-8.822 0-16-7.178-16-16s7.178-16 16-16 16 7.178 16 16-7.178 16-16 16zm0-30c-7.72 0-14 6.28-14 14s6.28 14 14 14 14-6.28 14-14-6.28-14-14-14z"/><path d="m21.173 36.562-17-25c-.27-.397-.219-.93.12-1.27l9-9c.212-.212.508-.317.806-.288s.567.191.733.44l20 30-1.664 1.109-19.323-28.983-7.552 7.552 16.535 24.315z"/><path d="m42.827 36.562-1.654-1.125 16.535-24.315-7.553-7.552-17.323 25.985-1.664-1.109 18-27c.166-.25.436-.411.733-.44.303-.029.594.076.806.288l9 9c.339.339.39.872.12 1.27z"/><path d="m14 1h36v2h-36z"/><path d="m21 11h22v2h-22z"/><path d="m35 59h-4c-.552 0-1-.448-1-1v-13.586l-1.293 1.293c-.391.391-1.023.391-1.414 0l-3-3c-.391-.391-.391-1.023 0-1.414l6-6c.187-.188.442-.293.707-.293h4c.552 0 1 .448 1 1v22c0 .552-.448 1-1 1zm-3-2h2v-20h-2.586l-5 5 1.586 1.586 2.293-2.293c.286-.286.714-.372 1.09-.217.373.155.617.52.617.924z"/><path d="m59 42c-.232 0-.46-.02-.682-.058l.341-1.971c.448.076.941-.006 1.344-.24l1.006 1.729c-.609.353-1.303.54-2.009.54zm-1.988-.528c-.813-.467-1.44-1.207-1.765-2.084l1.876-.693c.162.438.476.809.884 1.043zm5.055-.905-1.532-1.285c.299-.358.465-.813.465-1.282l2-.035v.035c0 .938-.332 1.85-.933 2.567zm-7.064-2.484c0-.022 0-.044 0-.066l.997-.001zm.001-.066c.011-.986.335-1.867.914-2.566l1.541 1.275c-.3.362-.459.802-.459 1.274zm5.869-.722c-.165-.438-.481-.806-.89-1.038l.985-1.74c.816.461 1.447 1.198 1.777 2.073zm-2.886-1.02-1.016-1.723c.805-.475 1.792-.647 2.688-.498l-.33 1.973c-.445-.074-.94.012-1.342.248z"/><path d="m5 42c-.706 0-1.4-.187-2.008-.541l1.006-1.729c.402.234.895.316 1.344.24l.341 1.971c-.223.039-.451.059-.683.059zm1.988-.528-.995-1.734c.408-.234.722-.604.884-1.043l1.876.693c-.325.877-.952 1.617-1.765 2.084zm-5.055-.905c-.601-.717-.933-1.629-.933-2.567l2-.035v.035c0 .469.166.924.465 1.282zm5.067-2.549.004-.101c-.004-.389-.163-.829-.462-1.191l1.541-1.275c.591.714.917 1.62.917 2.549zm-3.873-.723-1.872-.705c.33-.875.961-1.612 1.777-2.073l.985 1.74c-.409.232-.725.6-.89 1.038zm2.886-1.02c-.401-.237-.896-.324-1.342-.248l-.33-1.973c.896-.147 1.882.023 2.688.498z"/><path d="m55 52c-.232 0-.46-.02-.682-.058l.341-1.971c.45.076.941-.006 1.344-.24l1.006 1.729c-.609.353-1.303.54-2.009.54zm-1.988-.528c-.813-.467-1.44-1.207-1.765-2.084l1.876-.693c.162.438.476.809.884 1.043zm5.055-.905-1.532-1.285c.299-.358.465-.813.465-1.282l2-.035v.035c0 .938-.332 1.85-.933 2.567zm-7.064-2.484c0-.022 0-.044 0-.066l.997-.001zm.001-.066c.011-.986.335-1.867.914-2.566l1.541 1.275c-.3.362-.459.802-.459 1.274zm5.869-.722c-.165-.438-.481-.806-.89-1.038l.985-1.74c.816.461 1.447 1.198 1.777 2.073zm-2.886-1.02-1.016-1.723c.806-.476 1.791-.648 2.688-.498l-.33 1.973c-.446-.075-.94.012-1.342.248z"/><path d="m9 52c-.706 0-1.4-.187-2.008-.541l1.006-1.729c.402.234.893.316 1.344.24l.341 1.971c-.223.039-.451.059-.683.059zm1.988-.528-.995-1.734c.408-.234.722-.604.884-1.043l1.876.693c-.325.877-.952 1.617-1.765 2.084zm-5.055-.905c-.601-.717-.933-1.629-.933-2.567l2-.035v.035c0 .469.166.924.465 1.282zm5.067-2.549.004-.101c-.003-.389-.162-.829-.462-1.191l1.541-1.275c.591.714.917 1.62.917 2.549zm-3.873-.723-1.872-.705c.33-.875.961-1.612 1.777-2.073l.985 1.74c-.409.232-.725.6-.89 1.038zm2.886-1.02c-.402-.236-.897-.325-1.342-.248l-.33-1.973c.897-.148 1.882.023 2.688.498z"/><path d="m30.189 19h31.623v2h-31.623z" transform="matrix(.569 -.822 .822 .569 3.371 46.434)"/><path d="m17 4.189h2v31.623h-2z" transform="matrix(.822 -.569 .569 .822 -8.184 13.802)"/><path d="m17 6h30v2h-30z"/></svg>