<svg width="300" height="200" xmlns="http://www.w3.org/2000/svg">
 <style type="text/css">.st0{opacity:0.1;}
	.st1{fill:#4A72B2;}
	.st2{fill:#E3AD3F;}
	.st3{fill:#FFFFFF;}
	.st4{fill-rule:evenodd;clip-rule:evenodd;fill:#E3AD3F;}
	.st5{font-family:'Montserrat-Regular';}
	.st6{font-size:27.9897px;}</style>

 <g>
  <title>background</title>
  <rect fill="none" id="canvas_background" height="202" width="302" y="-1" x="-1"/>
 </g>
 <g>
  <title>Layer 1</title>
  <g id="svg_1">
   <g id="svg_2">
    <g id="svg_3" opacity="0.1">
     <path id="svg_4" d="m62.799988,34.300003c11.600006,-1 23.399994,2.800003 31.399994,11.599991c8.399994,9.200012 11.5,21.899994 10.700012,34.100006c-0.899994,15.600006 -7.800018,28.100006 -16.200012,40.899994c2.300018,4.800018 3.399994,7.200012 5.600006,12.100006c-7.299988,3.399994 -11,5.100006 -18.200012,8.5c-2.5,-5.200012 -3.799988,-7.799988 -6.399994,-13c-12.699982,2.5 -27.5,1.100006 -37.299988,-7.600006c-9.100006,-8.100006 -13.5,-20.5 -13.800018,-32.599976c-0.399994,-13.100006 3.700012,-26.300018 12,-36.600006c7.900024,-9.900009 19.600037,-16.300018 32.200012,-17.400009zm0,23.999985c-6,0.399994 -11.299988,3.200012 -15.600006,8.200012c-4.299988,5 -6.600006,11.299988 -6.799988,18.899994c-0.200012,7.600006 2.100006,13.600006 6.799988,18.100006c4.700012,4.5 9.600006,6.399994 14.700012,5.799988c-2,-4.5 -3.100006,-6.799988 -5.100006,-11.299988c6.200012,-3.200012 9.299988,-4.800018 15.5,-7.900024c2.200012,4.200012 3.399994,6.200012 5.600006,10.400024c3.5,-5.100006 5.399994,-11.200012 5.600006,-18.300018c0.199982,-7.100006 -1.600006,-13 -5.600006,-17.699982c-4,-4.600006 -9.100006,-6.700012 -15.100006,-6.200012z" fill="#4A72B2"/>
     <path id="svg_5" d="m178.600006,110.299988c-0.199982,0.5 -0.399994,1 -0.699982,1.5c-3.5,3.600006 -6.600006,6.100006 -9.400024,7.700012c-6.5,3.599976 -13.5,5.599976 -21.099976,6c-4.800018,0.199982 -9.300018,-0.400024 -13.600006,-1.700012c-5.899994,-1.899994 -10.5,-4.899994 -13.700012,-9.299988c-3.199982,-4.300018 -4.899994,-9.900024 -4.899994,-16.800018c-0.100006,-7.399994 2,-13.799988 6.299988,-19c4.300018,-5.299988 10.300018,-8.199982 17.900024,-8.699982c-6.800018,-7.300018 -10.200012,-11 -17.200012,-18.200012c-2.400024,-6.399994 -2.400024,-12.399994 0.199982,-18c19.5,-1.5 39,-2.300003 58.5,-2.800003c4.5,6.400009 3.800018,13.300003 -1.899994,20.600006c-10.699982,-0.300003 -21.5,-0.600006 -32.200012,-0.699997c19.300018,19.299988 37.900024,39.100006 55.800018,59.699982c-2.600006,7.5 -6.100006,12.600006 -10.600006,15.200012c-5.200012,-6.299988 -7.899994,-9.399994 -13.399994,-15.5zm-27.100006,-29.199982c-0.100006,0 -0.100006,0 -0.200012,0c-11.399994,3.600006 -16.599976,8 -15.699982,13c0.899994,5.100006 3,8.399994 6.399994,10.100006c3.399994,1.700012 7.200012,1.899994 11.5,0.899994c4.299988,-1 8.5,-2.799988 12.5,-5.299988c0.700012,-0.399994 1.299988,-0.800018 2,-1.200012c-6.5,-7.100006 -9.799988,-10.600006 -16.5,-17.5z" fill="#4A72B2"/>
     <path id="svg_6" d="m269.900024,35.899994c6.099976,31.199982 11.700012,62.399994 16.5,93.800018c-6.299988,3 -14,3.099976 -23.200012,0.399994c-1.099976,-7 -1.700012,-10.399994 -2.899963,-17.399994c-9.800018,0.199982 -14.700043,0.399994 -24.400024,0.799988c-2.899994,6.700012 -4.399994,10 -7.200012,16.600006c-9.600006,0.600006 -16.600006,-1.100006 -21.100006,-5.300018c13,-30.399994 26.800018,-60.5 41.400024,-90.199982c7.599945,-3.400009 14.699982,-3 20.899994,1.299988zm-14.700012,29c-4.5,10 -8.899994,20.100006 -13.200012,30.199982c6.5,-0.199982 9.800018,-0.299988 16.299988,-0.399994c-1,-9.899994 -2,-19.899994 -3.099976,-29.799988z" fill="#4A72B2"/>
    </g>
   </g>
   <g id="svg_7">
    <g id="svg_8">
     <path id="svg_9" d="m59.700012,27.199997c11.600006,-1 23.399994,2.800003 31.399994,11.600006c8.399994,9.199997 11.5,21.900009 10.700012,34.099991c-0.899994,15.600006 -7.800018,28.100006 -16.200012,40.899994c2.300018,4.800018 3.399994,7.200012 5.600006,12.100006c-7.299988,3.399994 -11,5.100006 -18.200012,8.5c-2.5,-5.199982 -3.799988,-7.799988 -6.399994,-13c-12.699982,2.5 -27.5,1.100006 -37.299988,-7.600006c-9.100006,-8.099976 -13.5,-20.5 -13.800018,-32.599976c-0.399994,-13.100006 3.700012,-26.300018 12,-36.600006c8,-9.900009 19.600006,-16.400009 32.200012,-17.400009zm0,23.900009c-6,0.400009 -11.299988,3.199997 -15.600006,8.200012c-4.299988,5 -6.600006,11.299988 -6.799988,18.899994c-0.200012,7.600006 2.100006,13.600006 6.799988,18.100006c4.700012,4.5 9.600006,6.399994 14.700012,5.799988c-2,-4.5 -3.100006,-6.799988 -5.100006,-11.299988c6.200012,-3.200012 9.299988,-4.800018 15.5,-7.899994c2.200012,4.199982 3.399994,6.199982 5.600006,10.399994c3.5,-5.100006 5.399994,-11.200012 5.600006,-18.300018c0.199982,-7.099976 -1.600006,-13 -5.600006,-17.699982c-4.000031,-4.500015 -9.000031,-6.600021 -15.100006,-6.200012z" fill="#E3AD3F"/>
     <path id="svg_10" d="m175.600006,103.100006c-0.199982,0.5 -0.399994,1 -0.699982,1.5c-3.5,3.600006 -6.600006,6.100006 -9.400024,7.700012c-6.5,3.600006 -13.5,5.600006 -21.099976,6c-4.800018,0.199982 -9.300018,-0.399994 -13.600006,-1.700012c-5.899994,-1.899994 -10.5,-4.899994 -13.700012,-9.299988c-3.199982,-4.300018 -4.899994,-9.899994 -4.899994,-16.800018c-0.100006,-7.399994 2,-13.799988 6.299988,-19c4.300018,-5.299988 10.300018,-8.199982 17.900024,-8.699982c-6.800018,-7.300003 -10.200012,-11.000015 -17.200012,-18.200012c-2.400024,-6.399994 -2.400024,-12.399994 0.199982,-18c19.5,-1.5 39,-2.300003 58.5,-2.800003c4.5,6.400009 3.800018,13.300003 -1.899994,20.600006c-10.699982,-0.300003 -21.5,-0.600006 -32.200012,-0.699997c19.300018,19.299988 37.900024,39.099976 55.800018,59.700012c-2.600006,7.5 -6.100006,12.599976 -10.600006,15.199982c-5.200012,-6.200012 -7.899994,-9.300018 -13.399994,-15.5zm-27.200012,-29.200012c-0.100006,0 -0.100006,0 -0.200012,0c-11.399994,3.600006 -16.600006,8 -15.699982,13c0.899994,5.100006 3,8.399994 6.399994,10.100006c3.399994,1.699982 7.199982,1.899994 11.5,0.899994c4.299988,-1 8.5,-2.800018 12.5,-5.300018c0.699982,-0.399994 1.299988,-0.799988 2,-1.199982c-6.5,-7 -9.799988,-10.5 -16.5,-17.5z" fill="#E3AD3F"/>
     <path id="svg_11" d="m266.900024,28.800003c6.099976,31.199997 11.700012,62.400009 16.5,93.800003c-6.299988,3 -14,3.100006 -23.200012,0.399994c-1.099976,-7 -1.700012,-10.399994 -2.899963,-17.399994c-9.800018,0.200012 -14.700043,0.399994 -24.400024,0.800018c-2.899994,6.699982 -4.399994,10 -7.200012,16.699982c-9.600006,0.600006 -16.600006,-1.100006 -21.100006,-5.299988c13,-30.399994 26.800018,-60.5 41.400024,-90.200012c7.599976,-3.5 14.699982,-3.100006 20.899994,1.199997zm-14.700012,28.999985c-4.5,10 -8.899994,20.100006 -13.200012,30.200012c6.5,-0.200012 9.800018,-0.300018 16.299988,-0.400024c-1,-9.999969 -2,-19.899963 -3.099976,-29.799988z" fill="#E3AD3F"/>
    </g>
   </g>
   <g id="svg_12">
    <g id="svg_13">
     <path id="svg_14" d="m68.799988,161.799988c0.299988,0.700012 -0.100006,1.600006 -0.700012,2.100006c-0.399994,-0.300018 -1.099976,-0.5 -2,-0.600006c-0.799988,-0.100006 -1.5,0.100006 -2,0.700012c-0.5,0.5 -0.799988,1.299988 -0.899994,2.099976c-0.100006,0.5 -0.100006,1.200012 0.300018,2c0.399994,0.700012 0.899994,1.200012 1.699982,1.200012c0.800018,0 1.700012,-0.100006 2.700012,-0.399994c0.399994,0.699982 0.399994,1.5 0.100006,2.199982c-1.300018,0.600006 -2.300018,0.900024 -3.100006,0.800018c-1.399994,-0.100006 -2.5,-0.700012 -3.200012,-1.5c-0.899994,-1.100006 -1.199982,-2.700012 -0.899994,-4.800018c0.200012,-1.599976 0.799988,-3 1.600006,-3.699982c1,-0.899994 2.399994,-1.200012 4,-1.100006c1.200012,-0.099976 2.100006,0.400024 2.399994,1z" fill="#FFFFFF"/>
     <path id="svg_15" d="m71.600006,160.899994c2.399994,-0.200012 4.200012,-0.300018 5.100006,-0.100006c1,0.200012 1.600006,0.600006 1.899994,1.299988c0.300018,0.700012 0.300018,1.700012 0,2.900024c-0.199982,1.199982 -1.100006,2 -2.699982,2.399994c1,1.299988 1.599976,2 2.599976,3.299988c-0.5,0.899994 -1.299988,1.200012 -2.399994,0.899994c-1,-1.5 -1.5,-2.199982 -2.600006,-3.699982c-0.299988,0 -0.5,0.100006 -0.899994,0.100006c-0.100006,1.399994 -0.199982,2 -0.299988,3.399994c-1,0.299988 -1.800018,0.299988 -2.399994,-0.200012c0.399994,-3.899994 0.599976,-5.899994 0.899994,-9.799988c0.299988,-0.199982 0.499969,-0.299988 0.799988,-0.5zm1.600006,2c-0.100006,1.199982 -0.200012,1.799988 -0.299988,3c2,-0.100006 3.199982,-0.5 3.399994,-1.100006c0.199982,-0.600006 0.299988,-1.100006 0,-1.5c-0.200012,-0.5 -1.300018,-0.599976 -3.100006,-0.399994z" fill="#FFFFFF"/>
     <path id="svg_16" d="m87.700012,160.799988c0.200012,0.799988 0.200012,1.5 -0.100006,2.100006c-1.899994,0.100006 -2.899994,0.100006 -4.799988,0.199982c-0.100006,0.700012 -0.100006,1.100006 -0.100006,1.800018c1.600006,0 2.399994,0 4,-0.100006c0.399994,0.700012 0.299988,1.399994 -0.100006,2c-1.600006,0.100006 -2.399994,0.100006 -4,0.200012c-0.100006,0.899994 -0.100006,1.299988 -0.199982,2.199982c2,-0.100006 3,-0.100006 4.899994,-0.100006c0.399994,0.800018 0.399994,1.600006 -0.200012,2.400024c-2.799988,0.099976 -4.100006,0.199982 -6.899994,0.299988c-0.200012,0 -0.299988,-0.200012 -0.399994,-0.5c0.299988,-3.899994 0.399994,-5.899994 0.699982,-9.799988c0.100006,-0.200012 0.200012,-0.300018 0.300018,-0.400024c2.799988,-0.199982 4.199982,-0.299988 6.899994,-0.299988z" fill="#FFFFFF"/>
     <path id="svg_17" d="m95,160.700012c1.200012,4.100006 1.799988,6.200012 2.899994,10.299988c-0.699982,0.400024 -1.5,0.5 -2.600006,0.300018c-0.199982,-0.800018 -0.299988,-1.200012 -0.5,-1.899994c-1.099976,0.099976 -1.599976,0.199982 -2.699982,0.299988c-0.300018,0.799988 -0.399994,1.200012 -0.700012,1.899994c-1.100006,0.100006 -1.899994,0 -2.399994,-0.5c1.5,-4.199982 2.299988,-6.299988 3.899994,-10.5c0.700012,-0.300018 1.399994,-0.300018 2.100006,0.100006zm-1.200012,3.399994c-0.5,1.399994 -0.700012,2.100006 -1.200012,3.5c0.700012,-0.100006 1.100006,-0.100006 1.800018,-0.199982c-0.299988,-1.300018 -0.399994,-1.900024 -0.600006,-3.300018z" fill="#FFFFFF"/>
     <path id="svg_18" d="m107.399994,160.799988c0.299988,0.799988 0.299988,1.5 -0.100006,2.299988c-1.100006,0 -1.600006,0 -2.700012,0c-0.199982,3.300018 -0.199982,5 -0.399994,8.400024c-0.699982,0.299988 -1.600006,0.299988 -2.5,0c0.200012,-3.300018 0.300018,-4.900024 0.5,-8.200012c-1.100006,0 -1.600006,0 -2.699982,0.100006c-0.5,-0.899994 -0.600006,-1.700012 -0.100006,-2.300018c3.300018,-0.199982 4.899994,-0.199982 8,-0.299988z" fill="#FFFFFF"/>
     <path id="svg_19" d="m116.700012,160.799988c0.200012,0.799988 0.200012,1.5 -0.100006,2.100006c-1.899994,0.100006 -2.899994,0.100006 -4.799988,0.199982c-0.100006,0.700012 -0.100006,1.100006 -0.100006,1.800018c1.600006,0 2.399994,0 4,-0.100006c0.399994,0.700012 0.299988,1.399994 -0.100006,2c-1.600006,0.100006 -2.399994,0.100006 -4,0.200012c-0.100006,0.899994 -0.100006,1.299988 -0.199982,2.199982c2,-0.100006 3,-0.100006 4.899994,-0.100006c0.399994,0.800018 0.399994,1.600006 -0.200012,2.400024c-2.799988,0.099976 -4.100006,0.199982 -6.899994,0.299988c-0.200012,0 -0.299988,-0.200012 -0.399994,-0.5c0.299988,-3.899994 0.399994,-5.899994 0.699982,-9.799988c0.100006,-0.200012 0.200012,-0.300018 0.300018,-0.400024c2.799988,-0.199982 4.199982,-0.299988 6.899994,-0.299988z" fill="#FFFFFF"/>
     <path id="svg_20" d="m124.399994,160.700012c0.699982,1.5 1.100006,2.200012 1.799988,3.700012c0.899994,-1.5 1.399994,-2.200012 2.300018,-3.700012c1,-0.100006 1.799988,0.200012 2.199982,0.700012c-1.399994,2 -2.100006,3 -3.5,5c-0.100006,2 -0.100006,3 -0.199982,5.099976c-0.900024,0.300018 -1.700012,0.300018 -2.400024,0c0.100006,-2 0.100006,-3.099976 0.200012,-5.099976c-1.100006,-2 -1.600006,-3 -2.700012,-4.900024c0.500031,-0.600006 1.300018,-0.799988 2.300018,-0.799988z" fill="#FFFFFF"/>
     <path id="svg_21" d="m137,160.799988c1.299988,0 2.399994,0.5 3.200012,1.5c0.799988,1 1.099976,2.299988 1,3.899994c-0.100006,1.600006 -0.700012,2.899994 -1.600006,3.899994c-0.899994,1 -2.100006,1.5 -3.399994,1.5c-1.400024,0 -2.5,-0.5 -3.300018,-1.5c-0.899994,-1 -1.199982,-2.299988 -1.100006,-3.799988c0.100006,-1.600006 0.700012,-2.899994 1.700012,-3.899994c1,-1.100006 2.200012,-1.600006 3.5,-1.600006zm-0.200012,2.700012c-0.600006,0 -1.200012,0.200012 -1.700012,0.799988c-0.5,0.5 -0.799988,1.200012 -0.899994,2.100006c-0.100006,0.899994 0.100006,1.600006 0.5,2.100006c0.5,0.600006 1,0.799988 1.700012,0.799988c0.699982,0 1.199982,-0.299988 1.699982,-0.799988s0.700012,-1.200012 0.800018,-2c0.100006,-0.799988 -0.100006,-1.5 -0.5,-2c-0.399994,-0.799988 -0.899994,-1 -1.600006,-1z" fill="#FFFFFF"/>
     <path id="svg_22" d="m142.899994,160.899994c0.899994,-0.200012 1.699982,-0.200012 2.5,0c-0.300018,3.799988 -0.399994,6 -0.399994,6.600006s0.199982,1.099976 0.399994,1.399994c0.199982,0.299988 0.699982,0.5 1.199982,0.5c0.600006,0 1,-0.200012 1.200012,-0.5c0.200012,-0.300018 0.399994,-0.800018 0.399994,-1.399994c0.100006,-0.600006 0.200012,-2.800018 0.300018,-6.600006c0.699982,-0.200012 1.5,-0.200012 2.399994,0c-0.200012,5.100006 -0.5,8 -0.800018,8.600006c-0.299988,0.599976 -0.699982,1.099976 -1.299988,1.5c-0.600006,0.399994 -1.399994,0.599976 -2.299988,0.599976c-1,0 -1.800018,-0.199982 -2.5,-0.699982c-0.700012,-0.5 -1.200012,-1.200012 -1.400024,-2c-0.199982,-0.899994 -0.099976,-3.5 0.300018,-8z" fill="#FFFFFF"/>
     <path id="svg_23" d="m153.5,160.899994c2.399994,-0.200012 4.200012,-0.300018 5.100006,-0.100006c1,0.200012 1.600006,0.600006 1.899994,1.299988c0.299988,0.700012 0.299988,1.700012 0,2.900024c-0.200012,1.199982 -1.100006,2 -2.700012,2.399994c1,1.299988 1.600006,2 2.600006,3.299988c-0.5,0.899994 -1.299988,1.200012 -2.399994,0.899994c-1,-1.5 -1.5,-2.199982 -2.600006,-3.699982c-0.299988,0 -0.5,0.100006 -0.899994,0.100006c-0.100006,1.399994 -0.200012,2 -0.299988,3.399994c-1,0.299988 -1.800018,0.299988 -2.400024,-0.200012c0.400024,-3.899994 0.600006,-5.899994 0.900024,-9.799988c0.399994,-0.199982 0.5,-0.299988 0.799988,-0.5zm1.600006,2c-0.100006,1.199982 -0.199982,1.799988 -0.299988,3c2,-0.100006 3.199982,-0.5 3.399994,-1.100006c0.200012,-0.600006 0.299988,-1.100006 0,-1.5c-0.200012,-0.5 -1.200012,-0.599976 -3.100006,-0.399994z" fill="#FFFFFF"/>
     <path id="svg_24" d="m171.5,160.799988c1.299988,0 2.399994,0.5 3.200012,1.5c0.799988,1 1.099976,2.299988 1,3.899994c-0.100006,1.600006 -0.800018,3.100006 -2.100006,4.5c0.199982,0.600006 0.299988,0.800018 0.600006,1.399994c-0.900024,0.300018 -1.300018,0.5 -2.200012,0.800018c-0.200012,-0.600006 -0.399994,-0.899994 -0.600006,-1.5c-1.899994,0.100006 -3.299988,-0.300018 -4.100006,-1.300018c-0.899994,-1 -1.199982,-2.299988 -1.099976,-3.799988c0.099976,-1.600006 0.699982,-2.899994 1.699982,-3.899994c1,-1.100006 2.200012,-1.600006 3.600006,-1.600006zm-0.200012,2.700012c-0.600006,0 -1.200012,0.200012 -1.700012,0.799988c-0.5,0.5 -0.799988,1.200012 -0.899994,2.100006c-0.100006,0.899994 0.100006,1.600006 0.5,2.100006c0.5,0.600006 1,0.799988 1.600006,0.799988c-0.200012,-0.5 -0.299988,-0.799988 -0.5,-1.299988c0.700012,-0.299988 1.100006,-0.399994 1.799988,-0.700012c0.200012,0.5 0.300018,0.700012 0.5,1.200012c0.400024,-0.5 0.700012,-1.200012 0.800018,-2c0.100006,-0.799988 -0.100006,-1.5 -0.5,-2c-0.5,-0.799988 -1,-1 -1.600006,-1z" fill="#FFFFFF"/>
     <path id="svg_25" d="m177.299988,160.899994c0.899994,-0.200012 1.700012,-0.200012 2.5,0c-0.299988,3.799988 -0.399994,6 -0.399994,6.600006c0,0.599976 0.199982,1.099976 0.399994,1.399994c0.200012,0.299988 0.700012,0.5 1.200012,0.5c0.599976,0 1,-0.200012 1.199982,-0.5c0.200012,-0.300018 0.399994,-0.800018 0.399994,-1.399994c0.100006,-0.600006 0.200012,-2.800018 0.300018,-6.600006c0.699982,-0.200012 1.5,-0.200012 2.399994,0c-0.200012,5.100006 -0.5,8 -0.799988,8.600006c-0.300018,0.599976 -0.700012,1.099976 -1.300018,1.5c-0.600006,0.399994 -1.399994,0.599976 -2.299988,0.599976c-1,0 -1.800018,-0.199982 -2.5,-0.699982c-0.700012,-0.5 -1.200012,-1.200012 -1.399994,-2c-0.200012,-0.899994 -0.100006,-3.5 0.299988,-8z" fill="#FFFFFF"/>
     <path id="svg_26" d="m194.200012,160.799988c0.200012,0.799988 0.200012,1.5 -0.100006,2.100006c-1.899994,0.100006 -2.899994,0.100006 -4.799988,0.199982c-0.100006,0.700012 -0.100006,1.100006 -0.100006,1.800018c1.600006,0 2.399994,0 4,-0.100006c0.399994,0.700012 0.299988,1.399994 -0.100006,2c-1.600006,0.100006 -2.399994,0.100006 -4,0.200012c-0.100006,0.899994 -0.100006,1.299988 -0.199982,2.199982c2,-0.100006 3,-0.100006 4.899994,-0.100006c0.399994,0.800018 0.399994,1.600006 -0.200012,2.400024c-2.799988,0.099976 -4.100006,0.199982 -6.899994,0.299988c-0.200012,0 -0.299988,-0.200012 -0.399994,-0.5c0.299988,-3.899994 0.399994,-5.899994 0.699982,-9.799988c0.100006,-0.200012 0.200012,-0.300018 0.300018,-0.400024c2.699982,-0.199982 4.099976,-0.299988 6.899994,-0.299988z" fill="#FFFFFF"/>
     <path id="svg_27" d="m195.899994,170.399994c-0.399994,-0.600006 -0.100006,-1.899994 0.600006,-2.5c1.299988,0.699982 2.199982,1.299988 2.699982,1.299988c0.899994,0.100006 1.700012,-0.299988 1.700012,-0.799988c0,-0.399994 -0.300018,-0.800018 -1,-1.200012c-0.800018,-0.399994 -1.100006,-0.5 -1.899994,-0.899994c-1.200012,-0.600006 -1.900024,-1.5 -1.800018,-2.600006c0,-0.600006 0.300018,-1.199982 0.700012,-1.699982s0.899994,-0.800018 1.399994,-1c0.5,-0.200012 1.100006,-0.200012 1.799988,-0.200012c1.300018,0.100006 2.400024,0.399994 3.400024,1.100006c0,0.899994 -0.300018,1.699982 -0.900024,2.399994c-1.199982,-0.899994 -2.199982,-1.200012 -2.899994,-1.200012c-0.600006,0 -1,0.200012 -1.100006,0.700012c0,0.299988 0.5,0.799988 1.400024,1.200012c1,0.5 1.899994,0.899994 2.5,1.5c0.5,0.599976 0.799988,1.299988 0.699982,2.099976c-0.100006,1.100006 -0.600006,1.900024 -1.600006,2.5c-0.599976,0.400024 -1.599976,0.600006 -2.699982,0.5c-0.899994,-0.099976 -2.600006,-0.499969 -3,-1.199982z" fill="#FFFFFF"/>
     <path id="svg_28" d="m213.100006,160.799988c0.300018,0.799988 0.300018,1.5 -0.100006,2.299988c-1.099976,0 -1.599976,0 -2.699982,0c-0.200012,3.300018 -0.200012,5 -0.399994,8.400024c-0.700012,0.299988 -1.600006,0.299988 -2.5,0c0.199982,-3.300018 0.299988,-4.900024 0.5,-8.200012c-1.100006,0 -1.600006,0 -2.700012,0.100006c-0.5,-0.899994 -0.600006,-1.700012 -0.100006,-2.300018c3.199982,-0.199982 4.799988,-0.199982 8,-0.299988z" fill="#FFFFFF"/>
     <path id="svg_29" d="m215.399994,160.799988c0.699982,-0.200012 1.600006,-0.100006 2.399994,0.100006c-0.299988,4.199982 -0.5,6.299988 -0.899994,10.600006c-1,0.299988 -1.800018,0.199982 -2.5,-0.100006c0.399994,-4.199982 0.600006,-6.299988 1,-10.600006z" fill="#FFFFFF"/>
     <path id="svg_30" d="m224.200012,160.799988c1.299988,0 2.399994,0.5 3.200012,1.5c0.799988,1 1.099976,2.299988 1,3.899994s-0.700012,2.899994 -1.600006,3.899994c-0.899994,1 -2.100006,1.5 -3.399994,1.5c-1.400024,0 -2.5,-0.5 -3.300018,-1.5c-0.899994,-1 -1.199982,-2.299988 -1.100006,-3.799988c0.100006,-1.600006 0.700012,-2.899994 1.700012,-3.899994c0.899994,-1.100006 2.099976,-1.600006 3.5,-1.600006zm-0.200012,2.700012c-0.600006,0 -1.200012,0.200012 -1.700012,0.799988c-0.5,0.5 -0.799988,1.200012 -0.899994,2.100006c-0.100006,0.899994 0.100006,1.600006 0.5,2.100006c0.5,0.600006 1,0.799988 1.700012,0.799988s1.199982,-0.299988 1.699982,-0.799988s0.700012,-1.200012 0.800018,-2c0.100006,-0.799988 -0.100006,-1.5 -0.5,-2c-0.5,-0.799988 -1,-1 -1.600006,-1z" fill="#FFFFFF"/>
     <path id="svg_31" d="m232.200012,160.899994c1.399994,2.299988 2.100006,3.5 3.5,5.799988c0.100006,-2.299988 0.200012,-3.399994 0.399994,-5.699982c0.800018,-0.400024 1.5,-0.400024 2.200012,0c-0.300018,4.099976 -0.399994,6.099976 -0.600006,10.199982c-0.5,0.399994 -1.200012,0.5 -2,0.200012c-1.299988,-2.300018 -2,-3.5 -3.299988,-5.899994c-0.200012,2.299988 -0.200012,3.5 -0.400024,5.899994c-1.099976,0.299988 -1.899994,0.199982 -2.399994,-0.200012c0.300018,-4 0.399994,-6.100006 0.600006,-10.100006c0.199982,-0.299988 0.899994,-0.399963 2,-0.199982z" fill="#FFFFFF"/>
     <path id="svg_32" d="m239.5,170.399994c-0.399994,-0.600006 -0.100006,-1.899994 0.600006,-2.5c1.299988,0.699982 2.199982,1.299988 2.699982,1.299988c0.900024,0.100006 1.700012,-0.299988 1.700012,-0.799988c0,-0.399994 -0.299988,-0.800018 -1,-1.200012c-0.799988,-0.399994 -1.100006,-0.5 -1.899994,-0.899994c-1.200012,-0.600006 -1.899994,-1.5 -1.800018,-2.600006c0,-0.600006 0.300018,-1.199982 0.700012,-1.699982c0.399994,-0.5 0.899994,-0.800018 1.399994,-1c0.5,-0.200012 1.100006,-0.200012 1.800018,-0.200012c1.299988,0.100006 2.399994,0.399994 3.399994,1.100006c0,0.899994 -0.300018,1.699982 -0.899994,2.399994c-1.200012,-0.899994 -2.200012,-1.200012 -2.900024,-1.200012c-0.599976,0 -1,0.200012 -1.099976,0.700012c0,0.299988 0.5,0.799988 1.399994,1.200012c1,0.5 1.899994,0.899994 2.5,1.5c0.5,0.599976 0.799988,1.299988 0.699982,2.099976c-0.099976,1.100006 -0.599976,1.900024 -1.599976,2.5c-0.600006,0.400024 -1.600006,0.600006 -2.700012,0.5c-0.799988,-0.099976 -2.5,-0.499969 -3,-1.199982z" fill="#FFFFFF"/>
    </g>
   </g>
   <g id="svg_33">
    <path id="svg_34" d="m260.099976,167.5c-0.200012,-0.100006 -0.400024,-0.5 -0.599976,-0.700012c-0.200012,-0.199982 -0.400024,-0.5 -0.600037,-0.699982c-0.399963,-0.5 -0.799988,-1 -1.099976,-1.399994c-0.5,-0.600006 -0.700012,-1 -1.5,-1.100006c-0.799988,-0.100006 -1.700012,0.199982 -2.200012,0.5c-0.699982,0.399994 -1,0.899994 -0.399994,1.600006c1.499969,1.799988 2.999969,3.799988 4.600006,5.699982c0.5,0.600006 0.799988,0.899994 1.899963,0.700012c0.700012,-0.100006 1.5,-0.399994 1.800049,-0.800018c0.199951,-0.299988 0.699951,-1.299988 0.899963,-1.699982c1.400024,-2.899994 3.700012,-7.100006 5.600037,-9.800018c1.099976,-1.5 2.099976,-2.899994 3.399963,-4.299988c0.400024,-0.399994 1,-1.100006 0.100037,-1.5c-0.700012,-0.299988 -1.700012,-0.200012 -2.300049,0c-0.599976,0.200012 -1,0.700012 -1.399963,1.200012c-0.400024,0.5 -0.700012,0.899994 -1.100037,1.399994l-1.099976,1.5c-0.200012,0.299988 -0.799988,1.100006 -1.099976,1.5c-1.100037,1.699982 -1.900024,2.899994 -3,4.699982l-1.900024,3.200012z" fill="#E3AD3F" clip-rule="evenodd" fill-rule="evenodd"/>
   </g>
   <text x="-245.854783" y="-199" id="svg_35" fill="#E3AD3F" font-size="27.9897px" font-family="Montserrat-Regular" transform="matrix(1.0494, 0, 0, 1, 298.642, 373.002)">x</text>
  </g>
 </g>
</svg>